<svg xmlns="http://www.w3.org/2000/svg" xmlns:xlink="http://www.w3.org/1999/xlink" viewBox="0 156 806 118" preserveAspectRatio="xMidYMid meet" version="1.0"><defs><g/></defs><g fill="#ffffff" fill-opacity="1"><g transform="translate(4.34767, 264.460789)"><g><path d="M 44.453125 1.65625 C 38.929688 1.65625 33.800781 0.738281 29.0625 -1.09375 C 24.320312 -2.9375 20.222656 -5.5625 16.765625 -8.96875 C 13.316406 -12.375 10.625 -16.398438 8.6875 -21.046875 C 6.757812 -25.703125 5.796875 -30.882812 5.796875 -36.59375 L 5.796875 -36.859375 C 5.796875 -42.109375 6.691406 -47.078125 8.484375 -51.765625 C 10.285156 -56.460938 12.796875 -60.5625 16.015625 -64.0625 C 19.234375 -67.5625 23.070312 -70.320312 27.53125 -72.34375 C 32 -74.363281 36.953125 -75.375 42.390625 -75.375 C 48.554688 -75.375 53.894531 -74.269531 58.40625 -72.0625 C 62.914062 -69.851562 66.664062 -66.882812 69.65625 -63.15625 C 72.644531 -59.4375 74.851562 -55.160156 76.28125 -50.328125 C 77.707031 -45.492188 78.421875 -40.453125 78.421875 -35.203125 C 78.421875 -34.378906 78.394531 -33.503906 78.34375 -32.578125 C 78.300781 -31.660156 78.234375 -30.695312 78.140625 -29.6875 L 26.640625 -29.6875 C 27.660156 -24.894531 29.753906 -21.28125 32.921875 -18.84375 C 36.097656 -16.40625 40.035156 -15.1875 44.734375 -15.1875 C 48.234375 -15.1875 51.363281 -15.785156 54.125 -16.984375 C 56.882812 -18.179688 59.738281 -20.113281 62.6875 -22.78125 L 74.6875 -12.15625 C 71.195312 -7.820312 66.960938 -4.4375 61.984375 -2 C 57.015625 0.4375 51.171875 1.65625 44.453125 1.65625 Z M 57.984375 -42.796875 C 57.335938 -47.492188 55.679688 -51.289062 53.015625 -54.1875 C 50.347656 -57.082031 46.804688 -58.53125 42.390625 -58.53125 C 37.972656 -58.53125 34.40625 -57.101562 31.6875 -54.25 C 28.96875 -51.40625 27.195312 -47.585938 26.375 -42.796875 Z M 57.984375 -42.796875 "/></g></g></g><g fill="#ffffff" fill-opacity="1"><g transform="translate(88.977627, 264.460789)"><g><path d="M 44.3125 1.65625 C 38.789062 1.65625 33.660156 0.644531 28.921875 -1.375 C 24.179688 -3.40625 20.109375 -6.144531 16.703125 -9.59375 C 13.296875 -13.039062 10.625 -17.085938 8.6875 -21.734375 C 6.757812 -26.390625 5.796875 -31.34375 5.796875 -36.59375 L 5.796875 -36.859375 C 5.796875 -42.109375 6.757812 -47.078125 8.6875 -51.765625 C 10.625 -56.460938 13.296875 -60.5625 16.703125 -64.0625 C 20.109375 -67.5625 24.179688 -70.320312 28.921875 -72.34375 C 33.660156 -74.363281 38.882812 -75.375 44.59375 -75.375 C 51.59375 -75.375 57.390625 -74.269531 61.984375 -72.0625 C 66.585938 -69.851562 70.640625 -66.816406 74.140625 -62.953125 L 61.296875 -49.15625 C 58.898438 -51.632812 56.4375 -53.609375 53.90625 -55.078125 C 51.375 -56.554688 48.222656 -57.296875 44.453125 -57.296875 C 41.785156 -57.296875 39.367188 -56.765625 37.203125 -55.703125 C 35.046875 -54.648438 33.160156 -53.203125 31.546875 -51.359375 C 29.929688 -49.515625 28.6875 -47.375 27.8125 -44.9375 C 26.945312 -42.5 26.515625 -39.898438 26.515625 -37.140625 L 26.515625 -36.859375 C 26.515625 -34.003906 26.945312 -31.332031 27.8125 -28.84375 C 28.6875 -26.363281 29.953125 -24.203125 31.609375 -22.359375 C 33.265625 -20.523438 35.242188 -19.078125 37.546875 -18.015625 C 39.847656 -16.953125 42.425781 -16.421875 45.28125 -16.421875 C 48.78125 -16.421875 51.84375 -17.132812 54.46875 -18.5625 C 57.09375 -19.988281 59.691406 -21.898438 62.265625 -24.296875 L 74.546875 -11.875 C 70.960938 -7.914062 66.867188 -4.671875 62.265625 -2.140625 C 57.660156 0.390625 51.675781 1.65625 44.3125 1.65625 Z M 44.3125 1.65625 "/></g></g></g><g fill="#ffffff" fill-opacity="1"><g transform="translate(165.7381, 264.460789)"><g><path d="M 45.703125 1.65625 C 39.992188 1.65625 34.695312 0.664062 29.8125 -1.3125 C 24.9375 -3.289062 20.726562 -6.003906 17.1875 -9.453125 C 13.644531 -12.910156 10.859375 -16.960938 8.828125 -21.609375 C 6.804688 -26.253906 5.796875 -31.25 5.796875 -36.59375 L 5.796875 -36.859375 C 5.796875 -42.203125 6.804688 -47.195312 8.828125 -51.84375 C 10.859375 -56.488281 13.664062 -60.5625 17.25 -64.0625 C 20.84375 -67.5625 25.078125 -70.320312 29.953125 -72.34375 C 34.835938 -74.363281 40.175781 -75.375 45.96875 -75.375 C 51.675781 -75.375 56.96875 -74.382812 61.84375 -72.40625 C 66.726562 -70.4375 70.941406 -67.722656 74.484375 -64.265625 C 78.023438 -60.816406 80.804688 -56.765625 82.828125 -52.109375 C 84.859375 -47.460938 85.875 -42.472656 85.875 -37.140625 L 85.875 -36.859375 C 85.875 -31.523438 84.859375 -26.53125 82.828125 -21.875 C 80.804688 -17.226562 78 -13.15625 74.40625 -9.65625 C 70.820312 -6.164062 66.585938 -3.40625 61.703125 -1.375 C 56.828125 0.644531 51.492188 1.65625 45.703125 1.65625 Z M 45.96875 -16.421875 C 49.007812 -16.421875 51.703125 -16.953125 54.046875 -18.015625 C 56.398438 -19.078125 58.40625 -20.523438 60.0625 -22.359375 C 61.71875 -24.203125 62.984375 -26.34375 63.859375 -28.78125 C 64.734375 -31.21875 65.171875 -33.820312 65.171875 -36.59375 L 65.171875 -36.859375 C 65.171875 -39.617188 64.707031 -42.21875 63.78125 -44.65625 C 62.863281 -47.101562 61.53125 -49.269531 59.78125 -51.15625 C 58.03125 -53.039062 55.957031 -54.535156 53.5625 -55.640625 C 51.175781 -56.742188 48.554688 -57.296875 45.703125 -57.296875 C 42.660156 -57.296875 39.960938 -56.765625 37.609375 -55.703125 C 35.265625 -54.648438 33.265625 -53.203125 31.609375 -51.359375 C 29.953125 -49.515625 28.6875 -47.375 27.8125 -44.9375 C 26.945312 -42.5 26.515625 -39.898438 26.515625 -37.140625 L 26.515625 -36.859375 C 26.515625 -34.097656 26.972656 -31.5 27.890625 -29.0625 C 28.804688 -26.625 30.140625 -24.460938 31.890625 -22.578125 C 33.640625 -20.691406 35.6875 -19.191406 38.03125 -18.078125 C 40.382812 -16.972656 43.03125 -16.421875 45.96875 -16.421875 Z M 45.96875 -16.421875 "/></g></g></g><g fill="#ffffff" fill-opacity="1"><g transform="translate(257.409045, 264.460789)"><g><path d="M 9.390625 -74 L 30.375 -74 L 30.375 -63.515625 C 31.570312 -65.078125 32.882812 -66.570312 34.3125 -68 C 35.738281 -69.425781 37.320312 -70.691406 39.0625 -71.796875 C 40.8125 -72.898438 42.742188 -73.769531 44.859375 -74.40625 C 46.984375 -75.050781 49.378906 -75.375 52.046875 -75.375 C 60.054688 -75.375 66.242188 -72.9375 70.609375 -68.0625 C 74.984375 -63.1875 77.171875 -56.46875 77.171875 -47.90625 L 77.171875 0 L 56.1875 0 L 56.1875 -41.28125 C 56.1875 -46.25 55.082031 -50 52.875 -52.53125 C 50.664062 -55.0625 47.535156 -56.328125 43.484375 -56.328125 C 39.441406 -56.328125 36.242188 -55.0625 33.890625 -52.53125 C 31.546875 -50 30.375 -46.25 30.375 -41.28125 L 30.375 0 L 9.390625 0 Z M 9.390625 -74 "/></g></g></g><g fill="#ffffff" fill-opacity="1"><g transform="translate(343.419582, 264.460789)"><g><path d="M 45.703125 1.65625 C 39.992188 1.65625 34.695312 0.664062 29.8125 -1.3125 C 24.9375 -3.289062 20.726562 -6.003906 17.1875 -9.453125 C 13.644531 -12.910156 10.859375 -16.960938 8.828125 -21.609375 C 6.804688 -26.253906 5.796875 -31.25 5.796875 -36.59375 L 5.796875 -36.859375 C 5.796875 -42.203125 6.804688 -47.195312 8.828125 -51.84375 C 10.859375 -56.488281 13.664062 -60.5625 17.25 -64.0625 C 20.84375 -67.5625 25.078125 -70.320312 29.953125 -72.34375 C 34.835938 -74.363281 40.175781 -75.375 45.96875 -75.375 C 51.675781 -75.375 56.96875 -74.382812 61.84375 -72.40625 C 66.726562 -70.4375 70.941406 -67.722656 74.484375 -64.265625 C 78.023438 -60.816406 80.804688 -56.765625 82.828125 -52.109375 C 84.859375 -47.460938 85.875 -42.472656 85.875 -37.140625 L 85.875 -36.859375 C 85.875 -31.523438 84.859375 -26.53125 82.828125 -21.875 C 80.804688 -17.226562 78 -13.15625 74.40625 -9.65625 C 70.820312 -6.164062 66.585938 -3.40625 61.703125 -1.375 C 56.828125 0.644531 51.492188 1.65625 45.703125 1.65625 Z M 45.96875 -16.421875 C 49.007812 -16.421875 51.703125 -16.953125 54.046875 -18.015625 C 56.398438 -19.078125 58.40625 -20.523438 60.0625 -22.359375 C 61.71875 -24.203125 62.984375 -26.34375 63.859375 -28.78125 C 64.734375 -31.21875 65.171875 -33.820312 65.171875 -36.59375 L 65.171875 -36.859375 C 65.171875 -39.617188 64.707031 -42.21875 63.78125 -44.65625 C 62.863281 -47.101562 61.53125 -49.269531 59.78125 -51.15625 C 58.03125 -53.039062 55.957031 -54.535156 53.5625 -55.640625 C 51.175781 -56.742188 48.554688 -57.296875 45.703125 -57.296875 C 42.660156 -57.296875 39.960938 -56.765625 37.609375 -55.703125 C 35.265625 -54.648438 33.265625 -53.203125 31.609375 -51.359375 C 29.953125 -49.515625 28.6875 -47.375 27.8125 -44.9375 C 26.945312 -42.5 26.515625 -39.898438 26.515625 -37.140625 L 26.515625 -36.859375 C 26.515625 -34.097656 26.972656 -31.5 27.890625 -29.0625 C 28.804688 -26.625 30.140625 -24.460938 31.890625 -22.578125 C 33.640625 -20.691406 35.6875 -19.191406 38.03125 -18.078125 C 40.382812 -16.972656 43.03125 -16.421875 45.96875 -16.421875 Z M 45.96875 -16.421875 "/></g></g></g><g fill="#ffffff" fill-opacity="1"><g transform="translate(435.090527, 264.460789)"><g><path d="M 34.375 1.25 C 31.15625 1.25 28.234375 0.898438 25.609375 0.203125 C 22.984375 -0.484375 20.726562 -1.703125 18.84375 -3.453125 C 16.957031 -5.203125 15.484375 -7.476562 14.421875 -10.28125 C 13.367188 -13.09375 12.84375 -16.660156 12.84375 -20.984375 L 12.84375 -56.046875 L 4 -56.046875 L 4 -74 L 12.84375 -74 L 12.84375 -92.921875 L 33.828125 -92.921875 L 33.828125 -74 L 51.21875 -74 L 51.21875 -56.046875 L 33.828125 -56.046875 L 33.828125 -24.4375 C 33.828125 -19.644531 36.082031 -17.25 40.59375 -17.25 C 44.269531 -17.25 47.71875 -18.125 50.9375 -19.875 L 50.9375 -3.03125 C 48.726562 -1.75 46.289062 -0.71875 43.625 0.0625 C 40.957031 0.851562 37.875 1.25 34.375 1.25 Z M 34.375 1.25 "/></g></g></g><g fill="#ffffff" fill-opacity="1"><g transform="translate(492.384864, 264.460789)"><g><path d="M 9.796875 -100.78125 L 31.890625 -100.78125 L 31.890625 -82.140625 L 9.796875 -82.140625 Z M 10.359375 -74 L 31.34375 -74 L 31.34375 0 L 10.359375 0 Z M 10.359375 -74 "/></g></g></g><g fill="#ffffff" fill-opacity="1"><g transform="translate(534.078572, 264.460789)"><g><path d="M 44.3125 1.65625 C 38.789062 1.65625 33.660156 0.644531 28.921875 -1.375 C 24.179688 -3.40625 20.109375 -6.144531 16.703125 -9.59375 C 13.296875 -13.039062 10.625 -17.085938 8.6875 -21.734375 C 6.757812 -26.390625 5.796875 -31.34375 5.796875 -36.59375 L 5.796875 -36.859375 C 5.796875 -42.109375 6.757812 -47.078125 8.6875 -51.765625 C 10.625 -56.460938 13.296875 -60.5625 16.703125 -64.0625 C 20.109375 -67.5625 24.179688 -70.320312 28.921875 -72.34375 C 33.660156 -74.363281 38.882812 -75.375 44.59375 -75.375 C 51.59375 -75.375 57.390625 -74.269531 61.984375 -72.0625 C 66.585938 -69.851562 70.640625 -66.816406 74.140625 -62.953125 L 61.296875 -49.15625 C 58.898438 -51.632812 56.4375 -53.609375 53.90625 -55.078125 C 51.375 -56.554688 48.222656 -57.296875 44.453125 -57.296875 C 41.785156 -57.296875 39.367188 -56.765625 37.203125 -55.703125 C 35.046875 -54.648438 33.160156 -53.203125 31.546875 -51.359375 C 29.929688 -49.515625 28.6875 -47.375 27.8125 -44.9375 C 26.945312 -42.5 26.515625 -39.898438 26.515625 -37.140625 L 26.515625 -36.859375 C 26.515625 -34.003906 26.945312 -31.332031 27.8125 -28.84375 C 28.6875 -26.363281 29.953125 -24.203125 31.609375 -22.359375 C 33.265625 -20.523438 35.242188 -19.078125 37.546875 -18.015625 C 39.847656 -16.953125 42.425781 -16.421875 45.28125 -16.421875 C 48.78125 -16.421875 51.84375 -17.132812 54.46875 -18.5625 C 57.09375 -19.988281 59.691406 -21.898438 62.265625 -24.296875 L 74.546875 -11.875 C 70.960938 -7.914062 66.867188 -4.671875 62.265625 -2.140625 C 57.660156 0.390625 51.675781 1.65625 44.3125 1.65625 Z M 44.3125 1.65625 "/></g></g></g><g fill="#ffffff" fill-opacity="1"><g transform="translate(612.910094, 264.460789)"><g><path d="M 9.796875 -100.78125 L 31.890625 -100.78125 L 31.890625 -82.140625 L 9.796875 -82.140625 Z M 10.359375 -74 L 31.34375 -74 L 31.34375 0 L 10.359375 0 Z M 10.359375 -74 "/></g></g></g><g fill="#ffffff" fill-opacity="1"><g transform="translate(654.603801, 264.460789)"><g><path d="M 30.375 1.375 C 26.875 1.375 23.582031 0.894531 20.5 -0.0625 C 17.414062 -1.03125 14.722656 -2.476562 12.421875 -4.40625 C 10.117188 -6.34375 8.300781 -8.710938 6.96875 -11.515625 C 5.632812 -14.328125 4.96875 -17.578125 4.96875 -21.265625 L 4.96875 -21.53125 C 4.96875 -25.582031 5.703125 -29.082031 7.171875 -32.03125 C 8.648438 -34.976562 10.695312 -37.414062 13.3125 -39.34375 C 15.9375 -41.28125 19.066406 -42.726562 22.703125 -43.6875 C 26.347656 -44.65625 30.378906 -45.140625 34.796875 -45.140625 C 38.566406 -45.140625 41.851562 -44.863281 44.65625 -44.3125 C 47.46875 -43.757812 50.207031 -43.023438 52.875 -42.109375 L 52.875 -43.359375 C 52.875 -47.773438 51.539062 -51.128906 48.875 -53.421875 C 46.207031 -55.722656 42.25 -56.875 37 -56.875 C 32.945312 -56.875 29.378906 -56.53125 26.296875 -55.84375 C 23.210938 -55.15625 19.96875 -54.164062 16.5625 -52.875 L 11.328125 -68.890625 C 15.367188 -70.640625 19.597656 -72.066406 24.015625 -73.171875 C 28.441406 -74.273438 33.78125 -74.828125 40.03125 -74.828125 C 45.832031 -74.828125 50.78125 -74.113281 54.875 -72.6875 C 58.976562 -71.257812 62.363281 -69.210938 65.03125 -66.546875 C 67.789062 -63.785156 69.8125 -60.398438 71.09375 -56.390625 C 72.382812 -52.390625 73.03125 -47.90625 73.03125 -42.9375 L 73.03125 0 L 52.734375 0 L 52.734375 -8 C 50.160156 -5.15625 47.078125 -2.878906 43.484375 -1.171875 C 39.898438 0.523438 35.53125 1.375 30.375 1.375 Z M 36.71875 -13.109375 C 41.695312 -13.109375 45.679688 -14.304688 48.671875 -16.703125 C 51.660156 -19.097656 53.15625 -22.226562 53.15625 -26.09375 L 53.15625 -29.828125 C 51.3125 -30.648438 49.257812 -31.3125 47 -31.8125 C 44.75 -32.320312 42.335938 -32.578125 39.765625 -32.578125 C 35.253906 -32.578125 31.707031 -31.703125 29.125 -29.953125 C 26.550781 -28.210938 25.265625 -25.679688 25.265625 -22.359375 L 25.265625 -22.09375 C 25.265625 -19.238281 26.320312 -17.023438 28.4375 -15.453125 C 30.550781 -13.890625 33.3125 -13.109375 36.71875 -13.109375 Z M 36.71875 -13.109375 "/></g></g></g><g fill="#ffffff" fill-opacity="1"><g transform="translate(736.334522, 264.460789)"><g><path d="M 35.34375 1.375 C 30.09375 1.375 24.726562 0.476562 19.25 -1.3125 C 13.78125 -3.101562 8.5625 -5.929688 3.59375 -9.796875 L 12.5625 -23.609375 C 16.613281 -20.660156 20.640625 -18.445312 24.640625 -16.96875 C 28.648438 -15.5 32.398438 -14.765625 35.890625 -14.765625 C 38.929688 -14.765625 41.164062 -15.269531 42.59375 -16.28125 C 44.019531 -17.300781 44.734375 -18.640625 44.734375 -20.296875 L 44.734375 -20.578125 C 44.734375 -21.679688 44.316406 -22.644531 43.484375 -23.46875 C 42.660156 -24.300781 41.535156 -25.015625 40.109375 -25.609375 C 38.679688 -26.210938 37.046875 -26.789062 35.203125 -27.34375 C 33.359375 -27.894531 31.425781 -28.488281 29.40625 -29.125 C 26.832031 -29.863281 24.234375 -30.757812 21.609375 -31.8125 C 18.984375 -32.875 16.613281 -34.253906 14.5 -35.953125 C 12.382812 -37.660156 10.65625 -39.753906 9.3125 -42.234375 C 7.976562 -44.722656 7.3125 -47.765625 7.3125 -51.359375 L 7.3125 -51.640625 C 7.3125 -55.410156 8.023438 -58.742188 9.453125 -61.640625 C 10.878906 -64.546875 12.8125 -67.007812 15.25 -69.03125 C 17.695312 -71.050781 20.550781 -72.566406 23.8125 -73.578125 C 27.082031 -74.597656 30.601562 -75.109375 34.375 -75.109375 C 39.070312 -75.109375 43.835938 -74.347656 48.671875 -72.828125 C 53.503906 -71.304688 57.941406 -69.210938 61.984375 -66.546875 L 53.984375 -52.046875 C 50.296875 -54.160156 46.703125 -55.835938 43.203125 -57.078125 C 39.710938 -58.328125 36.632812 -58.953125 33.96875 -58.953125 C 31.382812 -58.953125 29.445312 -58.46875 28.15625 -57.5 C 26.875 -56.53125 26.234375 -55.3125 26.234375 -53.84375 L 26.234375 -53.5625 C 26.234375 -52.550781 26.644531 -51.65625 27.46875 -50.875 C 28.300781 -50.09375 29.40625 -49.351562 30.78125 -48.65625 C 32.164062 -47.96875 33.753906 -47.300781 35.546875 -46.65625 C 37.347656 -46.019531 39.257812 -45.378906 41.28125 -44.734375 C 43.851562 -43.898438 46.472656 -42.90625 49.140625 -41.75 C 51.816406 -40.601562 54.210938 -39.203125 56.328125 -37.546875 C 58.441406 -35.890625 60.1875 -33.863281 61.5625 -31.46875 C 62.945312 -29.082031 63.640625 -26.1875 63.640625 -22.78125 L 63.640625 -22.5 C 63.640625 -18.363281 62.925781 -14.796875 61.5 -11.796875 C 60.070312 -8.804688 58.070312 -6.34375 55.5 -4.40625 C 52.925781 -2.476562 49.910156 -1.03125 46.453125 -0.0625 C 43.003906 0.894531 39.300781 1.375 35.34375 1.375 Z M 35.34375 1.375 "/></g></g></g></svg>